HIERARCHY
ROOT Hips
{
	OFFSET 0.000000 97.167313 0.000000
	CHANNELS 6 Xposition Yposition Zposition Xrotation Yrotation Zrotation
	JOINT Spine
	{
		OFFSET 0.000000 13.784798 0.064400
		CHANNELS 3 Xrotation Yrotation Zrotation
		JOINT Spine1
		{
			OFFSET 0.000000 12.037903 0.404700
			CHANNELS 3 Xrotation Yrotation Zrotation
			JOINT Spine2
			{
				OFFSET 0.000000 17.795601 0.420200
				CHANNELS 3 Xrotation Yrotation Zrotation
				JOINT Neck
				{
					OFFSET 0.000000 39.131302 11.954600
					CHANNELS 3 Xrotation Yrotation Zrotation
					JOINT Head
					{
						OFFSET 0.000000 14.456192 15.627699
						CHANNELS 3 Xrotation Yrotation Zrotation
						JOINT HeadTop_End
						{
							OFFSET 0.000000 15.703506 7.603401
							CHANNELS 3 Xrotation Yrotation Zrotation
							End Site
							{
								OFFSET 0.000000 17.447403 0.000000
							}
						}
					}
				}
				JOINT LeftShoulder
				{
					OFFSET 17.399500 24.608795 1.168800
					CHANNELS 3 Xrotation Yrotation Zrotation
					JOINT LeftArm
					{
						OFFSET 18.980635 5.765305 1.818600
						CHANNELS 3 Xrotation Yrotation Zrotation
						JOINT LeftForeArm
						{
							OFFSET 49.290169 0.000000 0.000000
							CHANNELS 3 Xrotation Yrotation Zrotation
							JOINT LeftHand
							{
								OFFSET 31.562012 0.000000 0.000000
								CHANNELS 3 Xrotation Yrotation Zrotation
								JOINT LeftHandThumb1
								{
									OFFSET 6.133995 -4.388519 7.076070
									CHANNELS 3 Xrotation Yrotation Zrotation
									JOINT LeftHandThumb2
									{
										OFFSET 6.037666 -3.485840 3.485847
										CHANNELS 3 Xrotation Yrotation Zrotation
										JOINT LeftHandThumb3
										{
											OFFSET 6.496506 -3.750763 3.750761
											CHANNELS 3 Xrotation Yrotation Zrotation
											JOINT LeftHandThumb4
											{
												OFFSET 5.616882 -3.242905 3.242910
												CHANNELS 3 Xrotation Yrotation Zrotation
												End Site
												{
													OFFSET -1.254608 7.132141 0.375429
												}
											}
										}
									}
								}
								JOINT LeftHandPinky1
								{
									OFFSET 18.920792 -0.453171 -11.426712
									CHANNELS 3 Xrotation Yrotation Zrotation
									JOINT LeftHandPinky2
									{
										OFFSET 4.919586 0.000000 0.000000
										CHANNELS 3 Xrotation Yrotation Zrotation
										JOINT LeftHandPinky3
										{
											OFFSET 5.233047 0.000000 0.000000
											CHANNELS 3 Xrotation Yrotation Zrotation
											JOINT LeftHandPinky4
											{
												OFFSET 5.571716 0.000000 0.000000
												CHANNELS 3 Xrotation Yrotation Zrotation
												End Site
												{
													OFFSET -3.459808 4.342407 -0.466164
												}
											}
										}
									}
								}
								JOINT LeftHandRing1
								{
									OFFSET 22.726120 -0.094986 -6.500475
									CHANNELS 3 Xrotation Yrotation Zrotation
									JOINT LeftHandRing2
									{
										OFFSET 6.408615 0.000000 0.000000
										CHANNELS 3 Xrotation Yrotation Zrotation
										JOINT LeftHandRing3
										{
											OFFSET 6.150223 0.000000 0.000000
											CHANNELS 3 Xrotation Yrotation Zrotation
											JOINT LeftHandRing4
											{
												OFFSET 6.145386 0.000000 0.000000
												CHANNELS 3 Xrotation Yrotation Zrotation
												End Site
												{
													OFFSET -3.671402 4.923981 -0.202372
												}
											}
										}
									}
								}
								JOINT LeftHandMiddle1
								{
									OFFSET 23.373947 0.000000 0.000001
									CHANNELS 3 Xrotation Yrotation Zrotation
									JOINT LeftHandMiddle2
									{
										OFFSET 6.996567 0.000000 0.000000
										CHANNELS 3 Xrotation Yrotation Zrotation
										JOINT LeftHandMiddle3
										{
											OFFSET 7.015945 0.000000 0.000000
											CHANNELS 3 Xrotation Yrotation Zrotation
											JOINT LeftHandMiddle4
											{
												OFFSET 7.721573 0.000000 0.000000
												CHANNELS 3 Xrotation Yrotation Zrotation
												End Site
												{
													OFFSET -4.651108 6.158463 0.251582
												}
											}
										}
									}
								}
								JOINT LeftHandIndex1
								{
									OFFSET 21.310577 -0.490082 6.209344
									CHANNELS 3 Xrotation Yrotation Zrotation
									JOINT LeftHandIndex2
									{
										OFFSET 7.536453 0.000000 0.000000
										CHANNELS 3 Xrotation Yrotation Zrotation
										JOINT LeftHandIndex3
										{
											OFFSET 7.512344 0.000000 0.000000
											CHANNELS 3 Xrotation Yrotation Zrotation
											JOINT LeftHandIndex4
											{
												OFFSET 10.212402 0.000000 0.000001
												CHANNELS 3 Xrotation Yrotation Zrotation
												End Site
												{
													OFFSET -5.180801 8.690506 1.388433
												}
											}
										}
									}
								}
							}
						}
					}
				}
				JOINT RightShoulder
				{
					OFFSET -17.399500 24.608795 1.168800
					CHANNELS 3 Xrotation Yrotation Zrotation
					JOINT RightArm
					{
						OFFSET -18.980635 5.765305 1.818600
						CHANNELS 3 Xrotation Yrotation Zrotation
						JOINT RightForeArm
						{
							OFFSET -49.290169 0.000000 0.000000
							CHANNELS 3 Xrotation Yrotation Zrotation
							JOINT RightHand
							{
								OFFSET -31.562012 0.000000 0.000000
								CHANNELS 3 Xrotation Yrotation Zrotation
								JOINT RightHandThumb1
								{
									OFFSET -6.133995 -4.388519 7.076070
									CHANNELS 3 Xrotation Yrotation Zrotation
									JOINT RightHandThumb2
									{
										OFFSET -6.037666 -3.485840 3.485847
										CHANNELS 3 Xrotation Yrotation Zrotation
										JOINT RightHandThumb3
										{
											OFFSET -6.496506 -3.750763 3.750761
											CHANNELS 3 Xrotation Yrotation Zrotation
											JOINT RightHandThumb4
											{
												OFFSET -5.616882 -3.242905 3.242910
												CHANNELS 3 Xrotation Yrotation Zrotation
												End Site
												{
													OFFSET 1.254608 7.132141 0.375429
												}
											}
										}
									}
								}
								JOINT RightHandIndex1
								{
									OFFSET -21.310577 -0.490082 6.209344
									CHANNELS 3 Xrotation Yrotation Zrotation
									JOINT RightHandIndex2
									{
										OFFSET -7.536453 0.000000 0.000000
										CHANNELS 3 Xrotation Yrotation Zrotation
										JOINT RightHandIndex3
										{
											OFFSET -7.512344 0.000000 0.000000
											CHANNELS 3 Xrotation Yrotation Zrotation
											JOINT RightHandIndex4
											{
												OFFSET -10.212402 0.000000 0.000001
												CHANNELS 3 Xrotation Yrotation Zrotation
												End Site
												{
													OFFSET 5.180801 8.690506 1.388433
												}
											}
										}
									}
								}
								JOINT RightHandMiddle1
								{
									OFFSET -23.373947 0.000000 0.000001
									CHANNELS 3 Xrotation Yrotation Zrotation
									JOINT RightHandMiddle2
									{
										OFFSET -6.996567 0.000000 0.000000
										CHANNELS 3 Xrotation Yrotation Zrotation
										JOINT RightHandMiddle3
										{
											OFFSET -7.015945 0.000000 0.000000
											CHANNELS 3 Xrotation Yrotation Zrotation
											JOINT RightHandMiddle4
											{
												OFFSET -7.721573 0.000000 0.000000
												CHANNELS 3 Xrotation Yrotation Zrotation
												End Site
												{
													OFFSET 4.651108 6.158463 0.251582
												}
											}
										}
									}
								}
								JOINT RightHandRing1
								{
									OFFSET -22.726120 -0.094986 -6.500475
									CHANNELS 3 Xrotation Yrotation Zrotation
									JOINT RightHandRing2
									{
										OFFSET -6.408615 0.000000 0.000000
										CHANNELS 3 Xrotation Yrotation Zrotation
										JOINT RightHandRing3
										{
											OFFSET -6.150223 0.000000 0.000000
											CHANNELS 3 Xrotation Yrotation Zrotation
											JOINT RightHandRing4
											{
												OFFSET -6.145386 0.000000 0.000000
												CHANNELS 3 Xrotation Yrotation Zrotation
												End Site
												{
													OFFSET 3.671402 4.923981 -0.202372
												}
											}
										}
									}
								}
								JOINT RightHandPinky1
								{
									OFFSET -18.920792 -0.453171 -11.426712
									CHANNELS 3 Xrotation Yrotation Zrotation
									JOINT RightHandPinky2
									{
										OFFSET -4.919586 0.000000 0.000000
										CHANNELS 3 Xrotation Yrotation Zrotation
										JOINT RightHandPinky3
										{
											OFFSET -5.233047 0.000000 0.000000
											CHANNELS 3 Xrotation Yrotation Zrotation
											JOINT RightHandPinky4
											{
												OFFSET -5.571716 0.000000 0.000000
												CHANNELS 3 Xrotation Yrotation Zrotation
												End Site
												{
													OFFSET 3.459808 4.342407 -0.466164
												}
											}
										}
									}
								}
							}
						}
					}
				}
			}
		}
	}
	JOINT LeftUpLeg
	{
		OFFSET 19.899099 -7.885101 -3.429500
		CHANNELS 3 Xrotation Yrotation Zrotation
		JOINT LeftLeg
		{
			OFFSET 1.745560 -36.997807 10.304700
			CHANNELS 3 Xrotation Yrotation Zrotation
			JOINT LeftFoot
			{
				OFFSET -1.745558 -29.803308 -13.615400
				CHANNELS 3 Xrotation Yrotation Zrotation
				JOINT LeftToeBase
				{
					OFFSET 1.181900 -18.539904 15.226099
					CHANNELS 3 Xrotation Yrotation Zrotation
					JOINT LeftToe_End
					{
						OFFSET -0.863701 1.402801 16.534700
						CHANNELS 3 Xrotation Yrotation Zrotation
						End Site
						{
							OFFSET 0.000000 16.616566 0.000000
						}
					}
				}
			}
		}
	}
	JOINT RightUpLeg
	{
		OFFSET -19.899099 -7.885101 -3.429500
		CHANNELS 3 Xrotation Yrotation Zrotation
		JOINT RightLeg
		{
			OFFSET -1.745560 -36.997807 10.304700
			CHANNELS 3 Xrotation Yrotation Zrotation
			JOINT RightFoot
			{
				OFFSET 1.745558 -29.803308 -13.615400
				CHANNELS 3 Xrotation Yrotation Zrotation
				JOINT RightToeBase
				{
					OFFSET -1.181900 -18.539904 15.226099
					CHANNELS 3 Xrotation Yrotation Zrotation
					JOINT RightToe_End
					{
						OFFSET 0.863701 1.402801 16.534700
						CHANNELS 3 Xrotation Yrotation Zrotation
						End Site
						{
							OFFSET 0.000000 16.616566 0.000000
						}
					}
				}
			}
		}
	}
}
MOTION
Frames: 5
Frame Time: 0.033333
1.072003 47.870979 20.954571 -9.434700 -2.171026 1.348531 20.186762 -0.492168 -3.326063 2.262023 -0.092983 -0.383440 2.262206 -0.093319 -0.388109 1.430024 0.501312 -0.016873 -17.100321 3.026799 3.599978 -0.000000 0.000000 0.000000 1.565798 -14.523764 -7.256472 -17.683841 -15.402322 -54.979946 0.000023 -57.143569 0.000000 25.724125 -2.310225 15.113969 6.704634 -2.646953 1.603635 18.718239 22.571422 -9.756632 3.282638 -1.054640 3.900540 0.000001 -0.000001 -0.000002 1.910214 7.276714 -27.959629 0.218131 1.585324 -15.668314 0.537946 2.454134 -24.722934 -0.000001 -0.000001 0.000001 2.333276 7.248565 -38.416939 0.415624 2.169171 -21.692138 0.315033 1.896930 -18.856032 0.000002 -0.000001 0.000003 -0.585541 4.092783 -44.490199 0.868687 3.071560 -31.576340 0.386856 2.095429 -20.918545 -0.000001 -0.000002 0.000009 1.267361 6.251784 -55.119333 0.947145 3.195557 -33.011889 0.152202 1.328069 -13.075432 -0.000001 0.000001 -0.000001 1.454643 17.436054 11.952172 -25.633435 28.949706 53.285953 0.000024 37.638434 -0.000022 24.337559 7.733565 -0.472903 4.380045 3.395471 -16.864280 30.486191 -13.841297 18.212220 -2.237538 -10.148421 17.332510 -0.000001 -0.000002 0.000002 1.162884 -5.380682 49.577751 0.883823 -2.731647 35.852336 0.232925 -1.455867 18.179085 -0.000001 -0.000001 0.000001 -0.565419 -3.684949 46.257965 0.499426 -2.100024 26.752181 0.021178 -0.444067 5.459656 -0.000001 -0.000000 -0.000009 -0.191905 -3.454253 35.803455 0.302866 -1.653630 20.756014 0.012851 -0.345990 4.251234 0.000001 0.000002 -0.000003 2.057520 -7.461620 25.931078 0.379022 -1.841961 23.252018 0.112482 -1.018425 12.604554 0.000002 0.000003 -0.000001 -85.835336 -0.973634 14.173180 85.209151 -8.333475 -5.484925 10.243423 0.264072 2.603413 -0.000068 0.000000 -0.000000 -0.000000 0.000000 -0.000000 -85.283620 4.181328 -13.135721 93.238400 -2.604336 4.758768 1.831069 -2.451471 -3.502165 -0.116995 -0.000002 -0.000001 0.000000 -0.000002 -0.000000 
1.078152 47.902222 20.847588 -9.862191 -2.158915 1.306218 19.757355 -0.432030 -3.184734 2.741651 -0.092983 -0.353014 2.741126 -0.093320 -0.359832 1.402273 0.469197 -0.000421 -16.810345 3.067441 3.443878 0.000000 -0.000000 -0.000000 1.564811 -14.461754 -7.291488 -17.831860 -16.466951 -54.586561 0.000006 -56.412776 0.000003 26.223833 -2.109762 14.995117 6.522232 -2.825731 2.464953 18.424258 22.168863 -10.089072 3.193808 -1.309454 3.877819 0.000000 -0.000001 -0.000002 2.087046 7.687624 -27.199649 0.217293 1.582262 -15.637631 0.530469 2.437888 -24.548270 -0.000003 -0.000002 -0.000001 2.458933 7.469998 -37.206571 0.418354 2.175950 -21.763469 0.315707 1.898917 -18.876619 -0.000004 0.000000 -0.000002 -0.586772 3.963057 -42.947123 0.849380 3.040012 -31.214456 0.396792 2.121160 -21.188041 0.000002 -0.000001 0.000004 1.031752 6.019553 -53.344402 0.883895 3.096150 -31.859124 0.159930 1.360896 -13.404496 -0.000000 0.000003 0.000001 1.385829 17.544120 11.916203 -25.383975 29.684627 52.828624 0.000008 37.196537 0.000006 23.602620 7.650686 -1.594025 4.348109 3.586108 -17.096501 29.733156 -14.661795 18.132940 -2.148102 -9.474766 16.460235 0.000001 0.000001 -0.000003 0.892651 -5.105957 47.578889 0.932036 -2.797074 36.851903 0.235806 -1.464616 18.291916 0.000000 -0.000003 -0.000001 -0.617734 -3.498094 44.328512 0.519536 -2.139440 27.295881 0.028879 -0.518382 6.376853 0.000001 0.000000 -0.000008 0.043935 -3.718406 34.398294 0.306123 -1.662203 20.868390 0.016884 -0.396555 4.873941 -0.000002 -0.000002 -0.000002 2.145417 -7.791528 24.938711 0.368679 -1.817775 22.928725 0.119404 -1.048868 12.987810 0.000001 0.000002 0.000004 -85.424568 -0.997280 14.138301 85.133336 -8.300755 -5.471678 10.332732 0.249269 2.588170 0.006114 0.000001 -0.000002 -0.000000 -0.000000 -0.000000 -84.831359 4.175438 -13.125610 93.156192 -2.603457 4.773495 1.893753 -2.489758 -3.489991 -0.106451 -0.000005 -0.000001 0.000000 -0.000002 -0.000000 
1.081757 47.929817 20.742233 -10.294950 -2.159488 1.279446 19.360653 -0.454014 -3.064322 3.289694 -0.106012 -0.319712 3.288486 -0.107237 -0.327707 1.382994 0.448174 0.028185 -16.996480 3.235073 3.168445 -0.000000 0.000000 -0.000000 1.555703 -14.411607 -7.353946 -17.837039 -17.307945 -54.050709 0.000027 -55.983072 0.000013 26.516973 -1.865840 14.964530 6.334892 -3.014263 3.387922 18.111285 21.738783 -10.446026 3.099065 -1.581671 3.852861 -0.000000 -0.000000 -0.000002 2.261867 8.129947 -26.384447 0.216391 1.579040 -15.604978 0.522556 2.420515 -24.361719 0.000001 0.000004 -0.000002 2.578375 7.711056 -35.910669 0.421275 2.183208 -21.839800 0.316423 1.901040 -18.898609 0.000002 -0.000001 0.000005 -0.584946 3.826537 -41.299125 0.828999 3.006141 -30.827946 0.407497 2.148599 -21.475896 -0.000000 -0.000001 0.000008 0.794009 5.761663 -51.450480 0.818546 2.988595 -30.628173 0.168393 1.395889 -13.755976 -0.000001 0.000001 0.000003 1.318289 17.641499 11.828166 -25.204276 30.595385 52.386079 0.000012 36.754631 -0.000008 22.834101 7.578116 -2.760700 4.314321 3.789406 -17.344517 28.917949 -15.531859 18.034119 -2.035883 -8.764968 15.524938 0.000001 -0.000001 0.000002 0.575041 -4.740493 45.084982 1.023620 -2.915125 38.689846 0.238686 -1.473267 18.404211 -0.000002 0.000000 0.000004 -0.698963 -3.237979 41.973811 0.550752 -2.198841 28.120667 0.038417 -0.597604 7.356511 0.000001 0.000001 -0.000001 0.238074 -3.941718 32.595763 0.309601 -1.671334 20.988652 0.021714 -0.449669 5.528743 -0.000000 0.000001 -0.000005 2.167726 -8.075744 23.568524 0.358571 -1.793673 22.607728 0.127978 -1.085435 13.449093 0.000001 0.000003 0.000003 -84.990721 -1.035466 14.121126 85.058975 -8.280266 -5.490587 10.403857 0.241290 2.570888 0.016767 0.000000 0.000003 0.000000 -0.000000 -0.000000 -84.400518 4.157897 -13.097608 93.084632 -2.608662 4.764860 1.958003 -2.525788 -3.488201 -0.095650 0.000003 0.000001 0.000000 0.000000 -0.000000 
1.093341 47.959351 20.650713 -10.738277 -2.116635 1.223440 18.999623 -0.520576 -2.851407 3.870494 -0.134371 -0.279133 3.868642 -0.136021 -0.287940 1.347444 0.426377 0.047219 -17.266110 3.368828 2.841490 -0.000000 0.000000 0.000000 1.543317 -14.366324 -7.427663 -17.766891 -18.077410 -53.469074 0.000008 -55.654605 -0.000013 26.677146 -1.648684 15.015478 6.145542 -3.210328 4.365013 17.782266 21.285004 -10.824679 2.999236 -1.868863 3.825782 -0.000001 0.000001 0.000001 2.430414 8.600015 -25.520341 0.215436 1.575653 -15.570629 0.514270 2.402181 -24.164871 -0.000000 0.000000 -0.000002 2.687658 7.969838 -34.539973 0.424339 2.190890 -21.920452 0.317193 1.903274 -18.921787 0.000000 0.000004 0.000002 -0.579678 3.684885 -39.560722 0.807742 2.970278 -30.420139 0.418976 2.177498 -21.779563 -0.000000 -0.000002 0.000001 0.559067 5.479532 -49.454497 0.752162 2.873656 -29.329816 0.177525 1.432744 -14.126795 -0.000003 0.000001 -0.000001 1.251962 17.730922 11.700345 -24.981062 31.493954 51.911620 -0.000019 36.478760 0.000015 22.118787 7.422035 -3.923332 4.279028 4.003439 -17.606201 28.045235 -16.442407 17.913863 -1.899076 -8.027427 14.533744 0.000000 0.000000 -0.000003 0.279561 -4.348685 42.564369 1.112346 -3.022401 40.402420 0.241786 -1.482563 18.524571 -0.000001 0.000000 0.000001 -0.762895 -2.975797 39.577842 0.581791 -2.255850 28.918539 0.049943 -0.681001 8.390017 0.000002 -0.000000 -0.000001 0.430307 -4.206255 30.777953 0.313314 -1.680913 21.114772 0.027499 -0.505886 6.222604 -0.000000 0.000000 -0.000005 2.189947 -8.397682 22.208626 0.347811 -1.767661 22.261728 0.137069 -1.122725 13.920386 0.000001 0.000000 0.000000 -84.577536 -1.068991 14.052422 85.007394 -8.248771 -5.467903 10.478778 0.232514 2.557092 0.026319 -0.000001 -0.000002 0.000000 -0.000000 0.000000 -83.897133 4.145905 -13.127527 93.036862 -2.579855 4.799638 1.950310 -2.574456 -3.475518 -0.084193 -0.000002 0.000002 0.000000 -0.000002 -0.000000 
1.110614 47.995468 20.555969 -11.241516 -2.048821 1.169999 18.792926 -0.598525 -2.629032 4.452792 -0.164625 -0.238588 4.450246 -0.166535 -0.248227 1.304904 0.400913 0.068784 -17.293178 3.418042 2.606424 -0.000000 0.000000 -0.000000 1.530516 -14.318867 -7.496273 -17.674424 -18.860557 -52.848613 0.000012 -55.469209 0.000024 26.852783 -1.371989 15.061317 5.956868 -3.411647 5.388620 17.440027 20.811291 -11.222192 2.895172 -2.168705 3.796712 0.000001 0.000001 -0.000001 2.588798 9.094179 -24.613695 0.214459 1.572132 -15.534867 0.505718 2.382969 -23.959443 -0.000000 0.000002 -0.000005 2.783314 8.244076 -33.105199 0.427574 2.198869 -22.004718 0.318001 1.905625 -18.945995 0.000000 0.000000 -0.000000 -0.570655 3.539816 -37.746194 0.785821 2.932669 -29.994458 0.431092 2.207568 -22.096567 -0.000001 0.000001 0.000004 0.331730 5.175061 -47.373154 0.685651 2.752097 -27.974882 0.187367 1.471153 -14.513848 -0.000000 0.000001 0.000002 1.188802 17.807140 11.526847 -24.610548 32.263283 51.350503 0.000002 36.586076 0.000014 21.482323 7.111604 -5.028050 4.242601 4.226430 -17.879357 27.119857 -17.384478 17.770600 -1.736416 -7.270482 13.493863 -0.000001 -0.000001 -0.000000 0.060596 -4.014731 40.482265 1.145329 -3.060714 41.024309 0.245307 -1.493007 18.659863 -0.000000 -0.000001 0.000003 -0.767572 -2.800509 37.522737 0.600107 -2.288717 29.381374 0.063597 -0.767800 9.468836 -0.000000 -0.000000 -0.000007 0.662890 -4.594611 29.328030 0.317173 -1.690861 21.245809 0.034413 -0.565743 6.962391 -0.000001 0.000001 0.000000 2.281163 -8.843295 21.248415 0.335626 -1.737649 21.863673 0.145296 -1.155370 14.333746 -0.000002 0.000002 0.000004 -84.103910 -1.079307 13.947518 84.951134 -8.210213 -5.428083 10.554053 0.224461 2.547552 0.037304 0.000003 -0.000002 0.000000 -0.000000 -0.000000 -83.314880 4.128607 -13.180507 93.000354 -2.530324 4.827613 1.911738 -2.647631 -3.455808 -0.072537 0.000009 -0.000003 -0.000000 0.000000 0.000000 
